<?xml version="1.0" standalone="no"?>
<!DOCTYPE svg PUBLIC "-//W3C//DTD SVG 20010904//EN"
 "http://www.w3.org/TR/2001/REC-SVG-20010904/DTD/svg10.dtd">
<svg version="1.0" xmlns="http://www.w3.org/2000/svg"
 width="285.000000pt" height="239.000000pt" viewBox="0 0 285.000000 239.000000"
 preserveAspectRatio="xMidYMid meet">

<g transform="translate(0.000000,239.000000) scale(0.100000,-0.100000)"
fill="#000000" stroke="none">
<path d="M575 2350 c-6 -9 77 -236 126 -347 11 -24 19 -46 19 -50 0 -7 79
-213 198 -518 37 -93 66 -179 64 -190 -3 -21 -20 -67 -163 -435 -50 -129 -115
-298 -144 -375 -29 -77 -74 -193 -99 -257 -25 -65 -46 -120 -46 -123 0 -3 53
-5 119 -5 83 0 122 4 128 13 14 16 283 704 373 952 10 28 31 86 48 130 16 44
27 87 25 95 -3 8 -13 38 -23 65 -10 28 -42 113 -70 190 -99 268 -151 410 -160
430 -23 50 -160 416 -160 425 0 13 -227 14 -235 0z"/>
<path d="M1185 2351 c-64 -5 -79 -9 -77 -21 7 -35 256 -683 384 -1002 l31 -78
-61 -162 c-33 -90 -81 -219 -106 -288 -24 -69 -67 -183 -96 -255 -151 -382
-190 -482 -190 -493 0 -10 30 -12 122 -10 l122 3 54 145 c123 331 176 469 258
676 110 279 136 353 128 378 -10 35 -53 153 -119 326 -35 91 -78 206 -96 255
-18 50 -72 189 -119 310 l-86 220 -34 1 c-19 0 -71 -2 -115 -5z"/>
<path d="M1640 2343 c0 -9 48 -138 106 -287 58 -149 121 -309 139 -356 18 -47
62 -161 99 -254 36 -93 66 -177 66 -186 0 -10 -18 -69 -41 -132 -22 -62 -44
-124 -49 -138 -4 -14 -43 -113 -85 -220 -42 -107 -91 -235 -110 -285 -18 -49
-60 -162 -94 -249 -34 -88 -61 -166 -61 -173 0 -10 28 -13 118 -13 l117 0 93
238 c50 130 100 260 111 287 10 28 68 184 129 347 62 163 112 303 112 310 0
14 -32 102 -111 308 -47 122 -210 563 -277 748 l-26 72 -118 0 c-103 0 -118
-2 -118 -17z"/>
<path d="M2233 2343 c-52 -3 -63 -7 -63 -21 0 -15 39 -122 153 -412 14 -36 39
-101 56 -145 17 -44 69 -178 116 -297 47 -120 85 -223 85 -228 0 -6 -27 -79
-59 -163 -33 -84 -82 -210 -110 -282 -27 -71 -80 -206 -116 -300 -127 -321
-174 -449 -169 -457 6 -9 165 -9 207 1 24 5 33 18 58 76 16 38 29 73 29 77 0
5 9 27 19 51 10 23 63 155 116 292 54 138 103 264 110 280 23 54 155 394 155
400 0 5 -140 383 -231 622 -22 59 -61 162 -86 228 -25 66 -59 157 -77 202
l-31 83 -50 -2 c-27 -1 -78 -3 -112 -5z"/>
<path d="M521 2268 c-5 -13 -36 -80 -70 -151 -34 -70 -61 -129 -61 -131 0 -2
-26 -59 -59 -127 -32 -68 -67 -144 -79 -169 -11 -25 -39 -85 -62 -135 -88
-191 -138 -301 -142 -315 -3 -8 5 -40 18 -70 25 -62 194 -480 259 -640 23 -58
70 -175 104 -260 34 -85 66 -158 70 -163 4 -4 29 48 55 116 l47 123 -50 135
c-27 74 -91 242 -141 374 -51 132 -95 249 -98 260 -2 11 -8 25 -12 30 -23 32
-15 63 61 243 44 103 84 196 89 207 32 69 190 446 190 454 0 9 -33 91 -71 178
-11 24 -19 47 -19 53 0 19 -20 10 -29 -12z"/>
<path d="M1063 2277 c-6 -6 -31 -58 -56 -115 l-46 -104 47 -126 c26 -69 52
-125 57 -125 6 0 32 49 58 109 55 126 55 132 2 271 -39 98 -47 110 -62 90z"/>
<path d="M1556 2199 c-69 -146 -69 -130 12 -339 34 -85 27 -90 92 65 23 55 42
111 42 125 -1 25 -76 215 -93 234 -5 5 -28 -32 -53 -85z"/>
<path d="M2072 2189 c-23 -55 -42 -110 -42 -122 0 -27 80 -247 90 -247 8 0
100 205 100 223 0 18 -81 220 -94 234 -8 9 -22 -13 -54 -88z"/>
<path d="M1778 1561 c-32 -71 -58 -133 -58 -138 0 -6 16 -45 35 -87 19 -43 35
-88 35 -101 0 -12 -16 -68 -35 -124 -19 -55 -35 -106 -35 -113 0 -13 83 -228
96 -249 6 -11 58 110 94 220 14 42 13 48 -17 131 l-31 87 45 109 c51 122 51
111 -5 259 -48 127 -51 135 -59 135 -5 0 -34 -58 -65 -129z"/>
<path d="M761 1651 c-6 -10 -19 -40 -30 -67 -10 -27 -35 -83 -54 -124 -66
-144 -97 -218 -97 -236 0 -9 15 -53 34 -98 19 -45 55 -130 80 -191 26 -60 52
-123 60 -140 l14 -30 12 30 c7 17 16 40 21 53 13 33 24 61 49 121 l22 54 -32
82 -32 82 47 103 47 102 -40 97 c-23 53 -49 115 -58 139 -18 46 -28 52 -43 23z"/>
<path d="M1310 1662 c0 -5 -25 -53 -55 -108 -30 -54 -55 -106 -55 -115 0 -8
16 -54 35 -101 l35 -87 -31 -98 c-17 -54 -34 -108 -36 -120 -5 -22 65 -213 90
-247 10 -14 20 5 61 116 l48 132 -22 61 c-37 97 -36 111 9 207 23 47 41 91 41
97 0 20 -103 271 -111 271 -5 0 -9 -4 -9 -8z"/>
<path d="M1027 583 c-21 -35 -88 -228 -84 -241 5 -17 55 -153 76 -204 15 -39
26 -35 41 15 8 23 27 73 42 111 15 38 28 75 28 83 0 22 -84 243 -92 243 -4 0
-9 -3 -11 -7z"/>
<path d="M1550 577 c0 -8 -18 -57 -40 -110 -22 -52 -40 -103 -40 -112 0 -9 14
-49 31 -88 16 -40 37 -89 46 -110 13 -30 19 -35 28 -25 11 12 85 206 85 223 0
4 -19 59 -41 121 -26 69 -47 114 -55 114 -8 0 -14 -6 -14 -13z"/>
<path d="M2037 453 c-26 -65 -47 -123 -47 -129 0 -10 25 -69 76 -181 8 -18 18
-34 23 -37 10 -7 91 202 91 235 0 30 -74 222 -87 226 -6 2 -31 -49 -56 -114z"/>
</g>
</svg>
